<?xml version="1.0" encoding="utf-8"?>
<svg version="1.1" xmlns="http://www.w3.org/2000/svg" xmlns:xlink="http://www.w3.org/1999/xlink" x="0px" y="0px" height="800px" width="800px" viewBox="0 0 256 256" enable-background="new 0 0 256 256" xml:space="preserve">
<metadata> Svg Vector Icons : http://www.onlinewebfonts.com/icon </metadata>
<g><g><g><path fill="#000000" d="M123.8,10.3c-10,1.8-18.5,10.1-21.2,20.8c-1,4-1,10.9,0,14.7c1.1,4.1,3.1,8.1,5.7,11.4l2.3,2.8l-3.3,0.6C93.1,63,81.7,69.8,76.5,78.7c-3.4,5.9-4.9,16.2-4.5,30.6l0.2,6.6H60.6H49l-1.2,1.4l-1.2,1.4v9.1v9.1l1.2,1.4l1.2,1.4h11.3c9.1,0,11.3,0.1,11.3,0.6c0,0.4,1.8,23.5,3.9,51.5c4.2,54.3,4,52.6,6.5,53.5c1.6,0.6,90.6,0.6,92.2,0c2.5-0.9,2.3,0.7,6.5-53.7c2.2-28.1,3.9-51.3,3.9-51.5c0-0.3,4.4-0.5,11.3-0.5H207l1.2-1.4l1.2-1.4v-9.1v-9.1l-1.2-1.4l-1.2-1.4h-11.4h-11.4l-0.3-12.1c-0.3-13-0.8-17.3-2.8-22c-1.6-3.9-5.3-8.8-8.8-11.7c-5.2-4.2-14.8-8.1-23.4-9.6l-3.4-0.6l2.3-2.8c4.4-5.4,6.5-11.5,6.5-18.8c0-15.1-10.6-27.3-24.5-28.3C127.7,9.9,125.1,10,123.8,10.3z M130.8,18.1c6.8,1.2,12.1,6.1,14.5,13.2c1.8,5.1,1.2,12.3-1.4,17.3c-1.2,2.4-4.6,6-7.1,7.5c-2.3,1.5-3,2.7-3,5.4c0,2.5,0.7,4.1,2,4.8c0.5,0.3,3.3,0.7,6,1.1c19.7,2.1,31.6,10.2,33.5,22.9c0.3,1.9,0.5,8.3,0.6,14.3l0.1,10.9l-7.4,0.1l-7.4,0.1l-0.3-2.4c-0.2-1.3-0.3-4-0.3-5.9c0-6.7-0.6-11-1.5-12c-1.2-1.2-2.9-1.6-4.5-0.9c-2.3,0.9-2.4,2.1-2,11.8c0.3,4.8,0.4,8.9,0.2,9c-0.3,0.5-49.4,0.5-49.6,0c-0.1-0.2,0-4.2,0.2-9.1c0.5-9.5,0.3-10.8-1.7-11.7c-1.8-0.8-3.2-0.6-4.4,0.6c-1.1,1-1.2,1.4-1.5,6.6c-0.2,3-0.4,7.4-0.6,9.7l-0.3,4.3h-7.3h-7.3l-0.3-4c-0.5-5.1,0.1-18.5,0.9-22.4c2.1-10.3,10-16.9,24.3-20.4c2.6-0.6,6.8-1.4,9.4-1.7c2.5-0.3,5.1-0.7,5.6-1c1.3-0.7,2-2.3,2-4.8c0-2.8-0.6-4-3-5.4c-6.1-3.9-9.5-10.3-9.5-18.2c0-9.8,6-17.9,14.8-19.8C127.8,17.5,127.6,17.5,130.8,18.1z M201.6,127.9v4.2H128H54.4v-4.2v-4.2H128h73.6V127.9z M176.5,142.3c-0.1,1.3-1.8,23.2-3.7,48.6c-1.9,25.4-3.6,46.4-3.7,46.7c-0.3,0.9-81.8,0.9-82.1,0c-0.1-0.3-1.8-21.3-3.7-46.5c-1.9-25.2-3.6-47.1-3.7-48.6l-0.3-2.6H128h48.8L176.5,142.3z"/></g></g></g>
</svg>