<?xml version="1.0"?>
<svg xmlns="http://www.w3.org/2000/svg" height="800px" width="800px" viewBox="0 0 64 64">
    <path d="M 41 4 C 36.916 4 33.464188 6.7367031 32.367188 10.470703 L 22.052734 6.34375 C 21.395734 6.07975 20.660281 6.0602031 19.988281 6.2832031 L 4.0507812 11.595703 C 2.8237812 12.004703 2 13.148406 2 14.441406 L 2 53.611328 C 2 54.253328 2.3100781 54.859375 2.8300781 55.234375 C 3.3490781 55.608375 4.0228125 55.714766 4.6328125 55.509766 L 20.619141 50.179688 C 20.843141 50.103687 21.087594 50.112172 21.308594 50.201172 L 39.894531 57.636719 C 40.252531 57.780719 40.631766 57.851563 41.009766 57.851562 C 41.377766 57.851562 41.745656 57.783484 42.097656 57.646484 L 58.085938 51.427734 C 59.248938 50.976734 60 49.879813 60 48.632812 L 60 9.4628906 C 60 8.8028906 59.674906 8.1855 59.128906 7.8125 C 58.583906 7.4405 57.890391 7.3586094 57.275391 7.5996094 L 49.654297 10.5625 C 48.587297 6.7815 45.117 4 41 4 z M 41 6 C 44.859 6 48 9.141 48 13 C 48 16.859 44.859 20 41 20 C 37.141 20 34 16.859 34 13 C 34 9.141 37.141 6 41 6 z M 41 8 C 40.447 8 40 8.447 40 9 C 40 9.553 40.447 10 41 10 C 41.704 10 42.388781 10.248219 42.925781 10.699219 C 43.113781 10.856219 43.339406 10.931641 43.566406 10.931641 C 43.852406 10.931641 44.136937 10.809219 44.335938 10.574219 C 44.689937 10.150219 44.633938 9.5210156 44.210938 9.1660156 C 43.311937 8.4140156 42.173 8 41 8 z M 20.964844 8.1308594 C 21.081469 8.1343594 21.198094 8.1566719 21.308594 8.2011719 L 32.025391 12.488281 C 32.016391 12.657281 32 12.827 32 13 C 32 13.855 32.127563 14.678891 32.351562 15.462891 L 21.710938 11.207031 C 21.272938 11.032031 20.782938 11.016969 20.335938 11.167969 L 7.3652344 15.490234 C 6.5482344 15.764234 6 16.526672 6 17.388672 L 6 47.279297 C 6 47.920297 6.3110781 48.527344 6.8300781 48.902344 C 7.3510781 49.276344 8.0218125 49.380781 8.6328125 49.175781 L 20.96875 45.064453 L 40.263672 52.783203 C 40.502672 52.879203 40.755812 52.927734 41.007812 52.927734 C 41.252812 52.927734 41.497469 52.880063 41.730469 52.789062 L 54.724609 47.736328 C 55.498609 47.434328 56 46.703094 56 45.871094 L 56 16.017578 C 56 15.356578 55.673906 14.740188 55.128906 14.367188 C 54.582906 13.994188 53.889391 13.912297 53.275391 14.154297 L 49.619141 15.574219 C 49.864141 14.757219 50 13.895 50 13 C 50 12.859 49.984516 12.720078 49.978516 12.580078 L 58 9.4628906 L 58 48.632812 C 58 49.041812 57.743328 49.415453 57.361328 49.564453 L 41.373047 55.78125 C 41.137047 55.87525 40.874672 55.874297 40.638672 55.779297 L 22.052734 48.34375 C 21.696734 48.20075 21.3175 48.130859 20.9375 48.130859 C 20.6175 48.130859 20.295281 48.181203 19.988281 48.283203 L 4 53.611328 L 4 14.441406 C 4 14.010406 4.2735938 13.629187 4.6835938 13.492188 L 20.619141 8.1816406 C 20.731141 8.1441406 20.848219 8.1273594 20.964844 8.1308594 z M 20.96875 13.064453 L 33.607422 18.119141 C 35.054422 20.202141 37.354 21.647406 40 21.941406 L 40 39 C 40 39.553 40.447 40 41 40 C 41.553 40 42 39.553 42 39 L 42 21.941406 C 44.598 21.652406 46.859547 20.251516 48.310547 18.228516 L 54 16.017578 L 54 45.871094 L 41.005859 50.925781 L 21.710938 43.207031 C 21.473938 43.112031 21.22175 43.064453 20.96875 43.064453 C 20.75475 43.064453 20.540937 43.097969 20.335938 43.167969 L 8 47.279297 L 8 17.386719 L 20.96875 13.064453 z M 11 32 C 10.447 32 10 32.447 10 33 L 10 35 C 10 35.553 10.447 36 11 36 C 11.553 36 12 35.553 12 35 L 12 33 C 12 32.447 11.553 32 11 32 z M 16 32 C 15.447 32 15 32.447 15 33 L 15 35 C 15 35.553 15.447 36 16 36 C 16.553 36 17 35.553 17 35 L 17 33 C 17 32.447 16.553 32 16 32 z M 21 32 C 20.447 32 20 32.447 20 33 L 20 35 C 20 35.553 20.447 36 21 36 C 21.553 36 22 35.553 22 35 L 22 33 C 22 32.447 21.553 32 21 32 z M 26 32 C 25.447 32 25 32.447 25 33 L 25 35 C 25 35.553 25.447 36 26 36 C 26.553 36 27 35.553 27 35 L 27 33 C 27 32.447 26.553 32 26 32 z M 31 32 C 30.447 32 30 32.447 30 33 L 30 35 C 30 35.553 30.447 36 31 36 C 31.553 36 32 35.553 32 35 L 32 33 C 32 32.447 31.553 32 31 32 z M 36 32 C 35.447 32 35 32.447 35 33 L 35 35 C 35 35.553 35.447 36 36 36 C 36.553 36 37 35.553 37 35 L 37 33 C 37 32.447 36.553 32 36 32 z M 46 32 C 45.447 32 45 32.447 45 33 L 45 35 C 45 35.553 45.447 36 46 36 C 46.553 36 47 35.553 47 35 L 47 33 C 47 32.447 46.553 32 46 32 z M 51 32 C 50.447 32 50 32.447 50 33 L 50 35 C 50 35.553 50.447 36 51 36 C 51.553 36 52 35.553 52 35 L 52 33 C 52 32.447 51.553 32 51 32 z"/>
</svg>
